<svg width="55" height="56" viewBox="0 0 55 56" fill="none" xmlns="http://www.w3.org/2000/svg">
<path d="M47.3682 30.5602V7.25808L34.9913 0.229248H22.6909L41.2561 10.7725V21.3921V34.0746L47.3682 30.5602Z" fill="white"/>
<path d="M15.28 43.7774L34.9913 55.2374H34.9149L35.2205 55.4666L47.903 48.1322L54.015 37.5125L35.3733 48.3614L15.28 36.7485V43.7774Z" fill="white"/>
<path d="M39.8809 36.9014H39.9573L28.9557 43.1662L34.9913 46.6806L55.0082 34.9914V20.2461L48.8962 9.62646V31.4005L39.8809 36.9014Z" fill="white"/>
<path d="M39.7282 11.6128L19.7113 0L7.02883 7.33443L0.916809 18.0305L19.8641 7.10523L29.0321 12.4532H28.8793L39.7282 18.7181V11.6128Z" fill="white"/>
<path d="M20.0169 8.86243L0 20.5517V35.2205L6.11202 45.8402V24.0661L15.1273 18.7181L26.1289 12.3768L20.0169 8.86243Z" fill="white"/>
<path d="M7.64001 24.9065V48.2086L20.0169 55.2374H32.3937L13.752 44.6942V34.0745V21.3921L7.64001 24.9065Z" fill="white"/>
</svg>
