<svg width="664" height="665" viewBox="0 0 664 665" fill="none" xmlns="http://www.w3.org/2000/svg">
<g clip-path="url(#clip0_738_2)">
<path opacity="0.2" d="M663.459 504.085V333.877H663.999V331.998H663.459V161.791C663.449 120.049 647.205 79.9474 618.163 49.9658V46.8775H663.459V44.9858H619.475L661.709 2.52078L660.422 1.23396L618.201 43.699V2.1476H616.323V44.9858H613.131C583.581 16.7383 544.283 0.962883 503.404 0.937988H160.042C119.18 0.976116 79.9032 16.7505 50.3661 44.9858H47.162V2.1476H45.2961V43.6604L3.0755 1.19535L1.78868 2.48217L44.0092 44.9472H2.67659V46.826H45.2961V49.9658C16.25 79.9451 0.00579511 120.048 0 161.791V504.085C0.00579511 545.827 16.25 585.93 45.2961 615.909V619.049H2.67659V620.928H43.9706L1.75008 663.393L3.0369 664.68L45.2575 622.215V663.728H47.1234V620.889H50.3275C79.8742 649.134 119.167 664.909 160.042 664.937H503.404C544.27 664.902 583.552 649.128 613.093 620.889H616.284V663.728H618.163V622.215L660.383 664.68L661.67 663.393L619.437 620.928H663.999V619.049H618.163V615.909C647.198 585.923 663.441 545.825 663.459 504.085ZM661.58 504.085C661.577 544.662 646.041 583.698 618.163 613.181V451.904H660.911V450.038H618.163V333.877H661.58V504.085ZM449.525 450.038L448.238 448.751C450.374 446.581 452.446 444.35 454.453 442.06V450.038H449.525ZM454.453 451.917V454.993L451.391 451.917H454.453ZM210.073 450.038V443.282C211.746 445.148 213.471 446.963 215.221 448.751L213.934 450.038H210.073ZM212.068 451.917L210.073 453.899V451.904L212.068 451.917ZM213.934 215.837L215.221 217.124C213.471 218.912 211.746 220.74 210.073 222.593V215.837H213.934ZM210.073 213.958V211.977L212.068 213.971L210.073 213.958ZM454.453 215.837V223.815C452.446 221.525 450.374 219.294 448.238 217.124L449.525 215.837H454.453ZM451.391 213.958L454.453 210.883V213.958H451.391ZM454.453 331.985H450.052C449.857 301.112 437.666 271.524 416.055 249.474L446.938 218.462C449.512 221.096 452.026 223.828 454.479 226.659L454.453 331.985ZM456.319 228.885C480.321 257.894 493.511 294.334 493.637 331.985H456.319V228.885ZM414.729 250.761C436.001 272.447 448 301.558 448.187 331.934H333.981L414.729 250.761ZM332.669 330.544V215.837C362.941 216.048 391.925 228.115 413.404 249.449L332.669 330.544ZM330.79 330.544L250.042 249.359C271.545 228.064 300.528 216.032 330.79 215.837V330.544ZM329.503 331.831H215.272C215.466 301.456 227.464 272.348 248.729 250.658L329.503 331.831ZM329.503 333.71L248.755 414.882C227.49 393.193 215.492 364.084 215.298 333.71H329.503ZM330.79 334.997V450.038C300.512 449.826 271.523 437.754 250.042 416.414L330.79 334.997ZM332.669 334.997L413.404 416.169C391.969 437.601 362.979 449.763 332.669 450.038V334.997ZM333.956 333.71H448.148C447.961 364.086 435.962 393.197 414.691 414.882L333.956 333.71ZM445.587 217.124L414.704 248.149C397.752 231.332 376.09 220.063 352.589 215.837H444.275L445.587 217.124ZM332.669 213.958V170.116C373.451 170.316 412.636 185.99 442.306 213.971L332.669 213.958ZM330.79 213.958H221.153C250.817 185.969 290.006 170.294 330.79 170.103V213.958ZM310.857 215.837C287.349 220.064 265.678 231.332 248.717 248.149L217.833 217.124L219.12 215.837H310.857ZM216.546 218.411L247.43 249.423C225.809 271.466 213.615 301.058 213.432 331.934H210.099V225.437C212.171 223.056 214.32 220.727 216.546 218.475V218.411ZM208.208 331.934H169.77C169.914 293.706 183.523 256.751 208.208 227.56V331.934ZM208.208 333.813V438.187C183.523 408.996 169.914 372.041 169.77 333.813H208.208ZM210.073 333.813H213.406C213.587 364.685 225.781 394.274 247.404 416.311L216.52 447.336C214.294 445.084 212.145 442.755 210.086 440.374L210.073 333.813ZM217.872 448.751L248.755 417.726C265.707 434.537 287.362 445.804 310.857 450.038H219.184L217.872 448.751ZM330.79 451.917V495.772C290.006 495.581 250.817 479.906 221.153 451.917H330.79ZM332.669 451.917H442.306C412.636 479.898 373.451 495.572 332.669 495.772V451.917ZM352.589 450.038C376.099 445.817 397.771 434.548 414.729 417.726L445.613 448.751L444.326 450.038H352.589ZM446.913 447.465L416.029 416.439C437.643 394.397 449.835 364.812 450.027 333.941H454.428V439.268C452.026 442.047 449.521 444.779 446.913 447.465ZM456.319 333.941H493.637C493.511 371.592 480.321 408.032 456.319 437.041V333.941ZM495.554 332.063C495.411 293.201 481.511 255.645 456.319 226.054V215.837H555.276C573.903 251.725 583.668 291.551 583.753 331.985L495.554 332.063ZM456.319 214.035V209.068L510.597 154.52C527.98 172.126 542.698 192.176 554.285 214.035H456.319ZM456.319 206.417V112.66C475.677 123.752 493.482 137.355 509.272 153.117L456.319 206.417ZM454.453 208.296L448.753 214.035H445.034C414.881 184.857 374.627 168.446 332.669 168.225V79.5884C375.332 79.6821 417.26 90.7046 454.453 111.605V208.296ZM330.79 168.225C288.842 168.423 248.589 184.806 218.425 213.958H214.706L210.073 209.3V110.987C247.008 90.475 288.542 79.6676 330.79 79.5756V168.225ZM208.208 207.434L154.161 153.117C170.252 137.067 188.431 123.255 208.208 112.055V207.434ZM208.208 210.098V213.958H109.122C120.705 192.096 135.424 172.045 152.81 154.443L208.208 210.098ZM208.208 215.85V224.729C182.35 254.5 168.043 292.566 167.891 331.998H79.7056C79.789 291.56 89.5537 251.729 108.183 215.837L208.208 215.85ZM167.891 333.877C168.043 373.309 182.35 411.376 208.208 441.146V450.038H108.183C89.5557 414.15 79.7911 374.324 79.7056 333.89L167.891 333.877ZM208.208 451.904V455.765L152.874 511.394C135.488 493.791 120.77 473.741 109.187 451.878L208.208 451.904ZM208.208 458.441V553.82C188.431 542.62 170.252 528.808 154.161 512.758L208.208 458.441ZM210.073 456.562L214.706 451.904H218.425C248.587 481.061 288.84 497.449 330.79 497.651V586.313C288.542 586.21 247.009 575.398 210.073 554.888V456.562ZM332.669 497.651C374.617 497.45 414.869 481.067 445.034 451.917H448.753L454.453 457.656V554.271C417.259 575.169 375.332 586.195 332.669 586.3V497.651ZM456.319 459.535L509.272 512.771C493.476 528.526 475.672 542.129 456.319 553.228V459.535ZM456.319 456.884V451.917H554.285C542.698 473.777 527.98 493.827 510.597 511.432L456.319 456.884ZM456.319 450.038V439.898C481.511 410.307 495.411 372.752 495.554 333.89H583.753C583.668 374.324 573.903 414.15 555.276 450.038H456.319ZM585.619 333.89H616.284V450.038H557.386C575.862 414.1 585.539 374.287 585.619 333.877V333.89ZM585.619 332.011C585.541 291.597 575.864 251.78 557.386 215.837H616.284V331.985L585.619 332.011ZM556.395 213.984C544.651 191.619 529.664 171.113 511.923 153.13L615.1 49.4511L615.19 49.5283C615.576 49.9272 615.962 50.3519 616.348 50.8151V213.971L556.395 213.984ZM613.685 48.1514L510.597 151.792C494.435 135.66 476.179 121.771 456.319 110.498V46.8646H612.346L613.685 48.1514ZM454.453 109.456C417.202 88.7297 375.298 77.8021 332.669 77.6968V46.8131H454.453V109.456ZM332.669 44.9858V2.81674H454.453V44.9858H332.669ZM330.79 44.9858H210.073V2.81674H330.79V44.9858ZM330.79 46.8646V77.7483C288.576 77.8471 247.064 88.5603 210.073 108.902V46.8646H330.79ZM208.208 109.919C187.938 121.29 169.32 135.383 152.874 151.805L49.7871 48.1643L51.0739 46.8775H208.208V109.919ZM48.333 49.5283L48.4102 49.4511L151.536 153.117C133.787 171.096 118.796 191.603 107.051 213.971H47.162V50.7637C47.6124 50.3519 47.9341 49.9272 48.333 49.5283ZM106.073 215.837C87.5987 251.772 77.9223 291.58 77.8398 331.985H47.162V215.837H106.073ZM77.8398 333.864C77.9183 374.278 87.5948 414.096 106.073 450.038H47.162V333.877L77.8398 333.864ZM107.051 451.891C118.796 474.259 133.787 494.766 151.536 512.745L48.4102 616.424L48.333 616.347C47.9341 615.948 47.5609 615.523 47.162 615.06V451.904L107.051 451.891ZM49.7742 617.724L152.861 514.083C169.311 530.506 187.927 544.602 208.195 555.982V619.036H51.1125L49.7742 617.724ZM210.073 557.025C247.064 577.366 288.576 588.08 330.79 588.178V619.062H210.073V557.025ZM330.79 620.889V663.058H210.073V620.889H330.79ZM332.669 620.889H454.453V663.058H332.669V620.889ZM332.669 619.011V588.127C375.298 588.022 417.202 577.094 454.453 556.368V618.959L332.669 619.011ZM456.319 555.377C476.179 544.104 494.435 530.216 510.597 514.083L613.685 617.724L612.398 619.011H456.319V555.377ZM615.1 616.347L615.01 616.424L511.897 512.758C529.639 494.775 544.625 474.269 556.37 451.904H616.258V615.112L615.1 616.347ZM661.58 161.791V331.998H618.163V215.837H660.911V213.958H618.163V52.7325C646.032 82.2061 661.567 121.227 661.58 161.791ZM610.39 44.9472H456.319V2.81674H503.404C543.114 2.84607 581.34 17.9129 610.39 44.9858V44.9472ZM160.003 2.77814H208.208V44.9472H53.0685C82.1211 17.8902 120.341 2.83755 160.042 2.81674L160.003 2.77814ZM1.86589 504.085V161.791C1.87391 121.212 17.4138 82.1759 45.2961 52.6939V213.932H2.57364V215.837H45.2961V331.985H2.41922V333.864H45.2961V450.038H2.57364V451.917H45.2961V613.156C17.4199 583.68 1.88049 544.654 1.86589 504.085ZM53.0685 620.928H208.208V663.097H160.042C120.331 663.055 82.1092 647.975 53.0685 620.889V620.928ZM503.456 663.097H456.319V620.889H610.39C581.338 647.96 543.114 663.027 503.404 663.058L503.456 663.097Z" fill="url(#paint0_radial_738_2)"/>
<mask id="mask0_738_2" style="mask-type:alpha" maskUnits="userSpaceOnUse" x="-13" y="0" width="592" height="665">
<path d="M578.988 0H-12.7969V664.938H578.988V0Z" fill="url(#paint1_linear_738_2)"/>
</mask>
<g mask="url(#mask0_738_2)">
<path d="M84.469 580.512C84.469 575.384 84.469 572.821 85.4826 570.869C86.3368 569.225 87.6776 567.884 89.322 567.03C91.2734 566.016 93.8371 566.016 98.9644 566.016H148.753C153.881 566.016 156.444 566.016 158.396 567.03C160.04 567.884 161.381 569.225 162.235 570.869C163.249 572.821 163.249 575.384 163.249 580.512V630.301C163.249 635.428 163.249 637.992 162.235 639.943C161.381 641.587 160.04 642.928 158.396 643.782C156.444 644.796 153.881 644.796 148.753 644.796H98.9644C93.8371 644.796 91.2734 644.796 89.322 643.782C87.6776 642.928 86.3368 641.587 85.4826 639.943C84.469 637.992 84.469 635.428 84.469 630.301V580.512Z" fill="white" fill-opacity="0.1"/>
<path d="M148.753 565.547H98.9644H98.9421C96.3973 565.547 94.4586 565.547 92.9134 565.676C91.3581 565.805 90.1596 566.066 89.1059 566.614C87.3758 567.513 85.9652 568.923 85.0665 570.653C84.5191 571.707 84.2575 572.906 84.1283 574.461C84 576.006 84 577.945 84 580.489V580.512V630.301V630.323C84 632.868 84 634.806 84.1283 636.352C84.2575 637.907 84.5191 639.105 85.0665 640.159C85.9652 641.889 87.3758 643.3 89.1059 644.198C90.1596 644.746 91.3581 645.007 92.9134 645.137C94.4585 645.265 96.3971 645.265 98.9418 645.265H98.9644H148.753H148.776C151.321 645.265 153.259 645.265 154.804 645.137C156.36 645.007 157.558 644.746 158.612 644.198C160.342 643.3 161.753 641.889 162.651 640.159C163.199 639.105 163.46 637.907 163.59 636.352C163.718 634.806 163.718 632.868 163.718 630.323V630.301V580.512V580.489C163.718 577.945 163.718 576.006 163.59 574.461C163.46 572.906 163.199 571.707 162.651 570.653C161.753 568.923 160.342 567.513 158.612 566.614C157.558 566.066 156.36 565.805 154.804 565.676C153.259 565.547 151.321 565.547 148.776 565.547H148.753Z" stroke="white" stroke-opacity="0.2" stroke-width="0.937853"/>
<mask id="mask1_738_2" style="mask-type:luminance" maskUnits="userSpaceOnUse" x="96" y="578" width="56" height="55">
<path d="M151.056 578.209H96.6604V632.605H151.056V578.209Z" fill="white"/>
</mask>
<g mask="url(#mask1_738_2)">
<path d="M100.06 578.209H147.656L143.327 627.081L123.806 632.604L104.394 627.079L100.06 578.209ZM138.794 588.211L108.922 588.204L109.405 594.147L132.353 594.151L131.775 600.307H116.725L117.269 606.139H131.281L130.451 614.123L123.856 615.946L117.156 614.11L116.73 609.328H110.815L111.472 618.065L123.858 621.925L136.036 618.458L138.794 588.214V588.211Z" fill="white"/>
</g>
<path d="M360.79 62.0457H311.084C303.314 62.0457 297.016 68.3439 297.016 76.1134V125.819C297.016 133.589 303.314 139.887 311.084 139.887H360.79C368.56 139.887 374.858 133.589 374.858 125.819V76.1134C374.858 68.3439 368.56 62.0457 360.79 62.0457Z" fill="white" fill-opacity="0.1"/>
<path d="M360.79 61.5767H311.084C303.056 61.5767 296.547 68.085 296.547 76.1135V125.819C296.547 133.848 303.056 140.356 311.084 140.356H360.79C368.819 140.356 375.327 133.848 375.327 125.819V76.1135C375.327 68.0851 368.819 61.5767 360.79 61.5767Z" stroke="white" stroke-opacity="0.2" stroke-width="0.937853"/>
<path d="M349.305 122.859C350.873 125.419 352.913 127.301 356.521 127.301C359.552 127.301 361.488 125.786 361.488 123.693C361.488 121.185 359.499 120.296 356.163 118.837L354.334 118.053C349.056 115.804 345.549 112.987 345.549 107.031C345.549 101.545 349.729 97.3694 356.262 97.3694C360.912 97.3694 364.256 98.9884 366.665 103.226L360.969 106.883C359.715 104.634 358.362 103.748 356.262 103.748C354.119 103.748 352.761 105.107 352.761 106.883C352.761 109.077 354.12 109.966 357.259 111.325L359.087 112.108C365.302 114.773 368.811 117.49 368.811 123.599C368.811 130.185 363.638 133.793 356.69 133.793C349.897 133.793 345.508 130.555 343.361 126.312L349.305 122.859ZM323.466 123.493C324.615 125.532 325.66 127.255 328.173 127.255C330.576 127.255 332.092 126.315 332.092 122.659V97.7874H339.407V122.758C339.407 130.332 334.966 133.779 328.484 133.779C322.628 133.779 319.236 130.748 317.511 127.098L323.466 123.493Z" fill="white"/>
<path d="M196.417 21.469H147.648C139.361 21.469 132.643 28.1872 132.643 36.4746V85.243C132.643 93.5304 139.361 100.249 147.648 100.249H196.417C204.704 100.249 211.422 93.5304 211.422 85.243V36.4746C211.422 28.1872 204.704 21.469 196.417 21.469Z" fill="white" fill-opacity="0.1"/>
<path d="M196.417 21H147.648C139.102 21 132.174 27.9282 132.174 36.4746V85.2429C132.174 93.7893 139.102 100.717 147.648 100.717H196.417C204.963 100.717 211.891 93.7893 211.891 85.2429V36.4746C211.891 27.9282 204.963 21 196.417 21Z" stroke="white" stroke-opacity="0.2" stroke-width="0.937853"/>
<path d="M171.856 71.7022C188.428 71.9721 201.942 67.3376 202.039 61.3508C202.137 55.364 188.781 50.2919 172.209 50.022C155.636 49.7521 142.123 54.3866 142.025 60.3734C141.928 66.3603 155.283 71.4323 171.856 71.7022Z" stroke="white" stroke-width="2.73905"/>
<path d="M162.021 66.1171C170.086 79.8312 181.106 88.5943 186.635 85.6901C192.163 82.7859 190.107 69.3142 182.042 55.6002C173.977 41.8862 162.957 33.1231 157.428 36.0273C151.9 38.9314 153.956 52.4031 162.021 66.1171Z" stroke="white" stroke-width="2.73905"/>
<path d="M162.199 55.2768C153.692 68.7209 151.198 82.1185 156.629 85.2012C162.06 88.2838 173.36 79.8842 181.867 66.4401C190.374 52.9959 192.868 39.5983 187.437 36.5157C182.006 33.433 170.706 41.8327 162.199 55.2768Z" stroke="white" stroke-width="2.73905"/>
<path fill-rule="evenodd" clip-rule="evenodd" d="M183.374 61.1174C182.598 59.5292 181.733 57.9171 180.781 56.2987C179.83 54.6817 178.839 53.1376 177.823 51.6772C175.982 51.5165 174.075 51.4167 172.118 51.3848C170.162 51.353 168.252 51.3907 166.407 51.4913C165.343 52.9178 164.303 54.4288 163.3 56.014C162.296 57.6005 161.379 59.1836 160.551 60.7457C161.327 62.3336 162.192 63.9455 163.144 65.5636C164.096 67.1831 165.089 68.7296 166.107 70.192C167.947 70.3525 169.853 70.4522 171.807 70.484C173.762 70.5159 175.67 70.4783 177.514 70.3778C178.579 68.9493 179.622 67.436 180.626 65.8483C181.63 64.262 182.547 62.6792 183.374 61.1174Z" fill="white" fill-opacity="0.2"/>
<path d="M171.97 66.1502C175.059 66.2005 177.601 63.8724 177.649 60.9502C177.696 58.0281 175.231 55.6185 172.143 55.5682C169.054 55.5179 166.512 57.846 166.464 60.7681C166.417 63.6902 168.882 66.0999 171.97 66.1502Z" fill="white"/>
<path d="M482.079 329.481L431.439 328.901C423.67 328.812 417.3 335.038 417.211 342.807L416.631 393.448C416.542 401.217 422.767 407.587 430.536 407.676L481.177 408.256C488.946 408.345 495.316 402.119 495.405 394.35L495.985 343.709C496.074 335.94 489.848 329.57 482.079 329.481Z" fill="white" fill-opacity="0.1"/>
<path d="M482.084 329.013L431.443 328.433C423.416 328.341 416.833 334.774 416.741 342.802L416.161 393.443C416.069 401.471 422.503 408.053 430.53 408.145L481.171 408.725C489.199 408.817 495.782 402.384 495.873 394.356L496.453 343.715C496.545 335.687 490.112 329.105 482.084 329.013Z" stroke="white" stroke-opacity="0.2" stroke-width="0.937853"/>
<path d="M443.268 363.645C443.259 364.383 443.332 364.983 443.467 365.424C443.622 365.865 443.816 366.346 444.089 366.868C444.187 367.029 444.225 367.189 444.224 367.329C444.222 367.529 444.099 367.727 443.838 367.924L442.57 368.748C442.389 368.865 442.209 368.923 442.049 368.921C441.85 368.919 441.651 368.817 441.454 368.635C441.178 368.332 440.942 368.01 440.746 367.689C440.55 367.347 440.355 366.965 440.141 366.504C438.563 368.322 436.596 369.218 434.24 369.191C432.564 369.172 431.232 368.678 430.264 367.708C429.297 366.739 428.813 365.456 428.831 363.859C428.851 362.162 429.465 360.792 430.695 359.767C431.924 358.743 433.547 358.243 435.603 358.266C436.282 358.274 436.98 358.342 437.717 358.45C438.455 358.559 439.212 358.727 440.008 358.916L440.025 357.459C440.042 355.942 439.735 354.88 439.123 354.254C438.491 353.628 437.417 353.316 435.88 353.299C435.181 353.291 434.462 353.362 433.721 353.533C432.98 353.705 432.259 353.916 431.557 354.187C431.236 354.323 430.996 354.401 430.856 354.439C430.716 354.477 430.615 354.496 430.536 354.495C430.256 354.492 430.119 354.291 430.124 353.871L430.135 352.893C430.138 352.574 430.181 352.335 430.282 352.196C430.384 352.058 430.565 351.92 430.846 351.784C431.549 351.432 432.391 351.142 433.372 350.914C434.353 350.666 435.392 350.558 436.49 350.57C438.865 350.598 440.596 351.157 441.701 352.247C442.787 353.338 443.327 354.981 443.302 357.177L443.228 363.644L443.268 363.645ZM435.129 366.586C435.787 366.594 436.467 366.482 437.189 366.25C437.91 366.019 438.554 365.587 439.1 364.995C439.424 364.619 439.668 364.202 439.793 363.725C439.918 363.247 440.005 362.669 440.013 361.99L440.022 361.152C439.445 361.006 438.828 360.879 438.19 360.792C437.552 360.704 436.933 360.657 436.315 360.65C434.977 360.635 433.996 360.883 433.331 361.415C432.666 361.946 432.338 362.701 432.327 363.699C432.316 364.637 432.548 365.339 433.041 365.824C433.515 366.328 434.21 366.576 435.129 366.586ZM451.133 368.926C450.774 368.921 450.535 368.859 450.377 368.717C450.219 368.596 450.082 368.315 449.967 367.934L445.452 352.45C445.337 352.049 445.28 351.789 445.282 351.649C445.285 351.33 445.447 351.152 445.767 351.156L447.723 351.178C448.102 351.183 448.361 351.245 448.499 351.387C448.657 351.508 448.774 351.789 448.889 352.17L452.092 365.423L455.357 352.244C455.461 351.846 455.584 351.588 455.745 351.47C455.906 351.352 456.187 351.275 456.546 351.279L458.143 351.298C458.522 351.302 458.781 351.365 458.939 351.506C459.097 351.628 459.234 351.909 459.309 352.289L462.31 365.7L465.917 352.365C466.041 351.967 466.184 351.709 466.325 351.591C466.486 351.473 466.746 351.396 467.106 351.4L468.962 351.422C469.281 351.425 469.459 351.587 469.455 351.926C469.454 352.026 469.433 352.126 469.412 352.245C469.39 352.365 469.349 352.524 469.266 352.743L464.279 368.118C464.154 368.516 464.012 368.774 463.851 368.892C463.69 369.009 463.429 369.086 463.09 369.082L461.373 369.063C460.994 369.058 460.735 368.996 460.577 368.854C460.419 368.713 460.282 368.451 460.207 368.051L457.26 355.141L454.039 367.961C453.935 368.359 453.812 368.617 453.651 368.755C453.489 368.893 453.209 368.949 452.85 368.945L451.133 368.926ZM476.778 369.758C475.74 369.746 474.703 369.615 473.708 369.364C472.712 369.113 471.937 368.844 471.421 368.539C471.104 368.356 470.887 368.154 470.809 367.973C470.731 367.792 470.693 367.592 470.695 367.413L470.707 366.395C470.712 365.976 470.874 365.778 471.173 365.781C471.293 365.783 471.413 365.804 471.532 365.845C471.651 365.886 471.83 365.968 472.029 366.05C472.704 366.358 473.44 366.606 474.216 366.774C475.013 366.943 475.791 367.032 476.589 367.041C477.847 367.055 478.827 366.847 479.511 366.416C480.195 365.984 480.561 365.35 480.571 364.531C480.577 363.972 480.403 363.511 480.048 363.128C479.693 362.744 479.018 362.397 478.044 362.067L475.159 361.135C473.707 360.659 472.637 359.968 471.989 359.063C471.34 358.177 471.012 357.195 471.024 356.157C471.034 355.318 471.222 354.582 471.588 353.947C471.955 353.312 472.44 352.759 473.044 352.327C473.648 351.875 474.331 351.543 475.132 351.313C475.933 351.082 476.773 350.992 477.651 351.002C478.09 351.007 478.549 351.032 478.988 351.097C479.446 351.162 479.864 351.247 480.283 351.332C480.681 351.436 481.059 351.54 481.417 351.664C481.775 351.788 482.053 351.911 482.251 352.033C482.529 352.196 482.727 352.358 482.844 352.539C482.962 352.7 483.02 352.92 483.016 353.2L483.006 354.138C483.001 354.557 482.839 354.775 482.539 354.771C482.379 354.769 482.121 354.687 481.783 354.523C480.652 353.991 479.377 353.717 477.96 353.701C476.822 353.688 475.922 353.857 475.298 354.229C474.675 354.601 474.349 355.177 474.34 355.995C474.333 356.554 474.528 357.035 474.922 357.419C475.317 357.803 476.052 358.191 477.106 358.542L479.93 359.473C481.362 359.949 482.393 360.599 483.002 361.425C483.611 362.25 483.9 363.192 483.888 364.23C483.878 365.088 483.69 365.865 483.343 366.539C482.976 367.214 482.49 367.807 481.865 368.279C481.241 368.771 480.498 369.122 479.637 369.372C478.735 369.641 477.796 369.77 476.778 369.758Z" fill="white"/>
<path d="M480.44 379.503C473.817 384.278 464.246 386.744 456.042 386.65C444.544 386.518 434.232 382.148 426.488 374.992C425.876 374.426 426.444 373.673 427.177 374.121C435.585 379.129 445.99 382.222 456.79 382.346C464.076 382.43 472.098 381.004 479.499 377.975C480.603 377.488 481.527 378.716 480.44 379.503ZM483.21 376.421C482.384 375.333 477.667 375.837 475.528 376.072C474.888 376.145 474.795 375.585 475.379 375.172C479.162 372.58 485.321 373.41 486.029 374.296C486.738 375.203 485.749 381.36 482.202 384.274C481.658 384.727 481.141 384.483 481.388 383.887C482.209 381.92 484.036 377.488 483.21 376.421Z" fill="white"/>
<path d="M276.729 161.802H226.085C218.315 161.802 212.017 168.101 212.017 175.87V226.514C212.017 234.284 218.315 240.582 226.085 240.582H276.729C284.498 240.582 290.796 234.284 290.796 226.514V175.87C290.796 168.101 284.498 161.802 276.729 161.802Z" fill="white" fill-opacity="0.1"/>
<path d="M276.729 161.333H226.084C218.056 161.333 211.548 167.842 211.548 175.87V226.514C211.548 234.543 218.056 241.051 226.084 241.051H276.729C284.757 241.051 291.265 234.543 291.265 226.514V175.87C291.265 167.842 284.757 161.333 276.729 161.333Z" stroke="white" stroke-opacity="0.2" stroke-width="0.937853"/>
<path d="M231.275 210.377L237.189 172.332C237.232 172.05 237.363 171.789 237.563 171.585C237.763 171.382 238.022 171.247 238.303 171.199C238.584 171.151 238.873 171.194 239.129 171.32C239.385 171.446 239.595 171.65 239.728 171.902L246.088 183.834L231.275 210.377ZM273.279 219.609L267.647 184.597C267.605 184.352 267.497 184.122 267.334 183.934C267.172 183.746 266.96 183.606 266.723 183.53C266.486 183.454 266.233 183.444 265.991 183.502C265.749 183.56 265.527 183.684 265.351 183.859L229.836 219.609L249.487 230.683C250.093 231.024 250.776 231.203 251.471 231.203C252.167 231.203 252.85 231.024 253.456 230.683L273.279 219.609ZM257.31 189.056L252.758 180.348C252.643 180.129 252.471 179.945 252.259 179.817C252.048 179.689 251.805 179.622 251.558 179.622C251.31 179.622 251.068 179.689 250.856 179.817C250.645 179.945 250.472 180.129 250.357 180.348L230.374 216.157L257.31 189.056Z" fill="white"/>
<path d="M426.937 212.597H376.293C368.523 212.597 362.225 218.896 362.225 226.665V277.309C362.225 285.079 368.523 291.377 376.293 291.377H426.937C434.706 291.377 441.004 285.079 441.004 277.309V226.665C441.004 218.896 434.706 212.597 426.937 212.597Z" fill="white" fill-opacity="0.1"/>
<path d="M426.936 212.128H376.292C368.264 212.128 361.756 218.637 361.756 226.665V277.309C361.756 285.338 368.264 291.846 376.292 291.846H426.936C434.965 291.846 441.473 285.338 441.473 277.309V226.665C441.473 218.637 434.965 212.128 426.936 212.128Z" stroke="white" stroke-opacity="0.2" stroke-width="0.937853"/>
<mask id="mask2_738_2" style="mask-type:luminance" maskUnits="userSpaceOnUse" x="372" y="222" width="60" height="61">
<path d="M431.682 222.113L373.112 222L372.998 281.941L431.568 282.054L431.682 222.113Z" fill="white"/>
</mask>
<g mask="url(#mask2_738_2)">
<path d="M402.878 218.917L404.828 222.113C405.266 222.703 405.741 223.226 406.3 223.712C407.932 225.137 409.482 226.63 410.875 228.228C414.179 232.015 416.407 236.22 417.998 240.768C418.952 243.546 419.47 246.396 419.509 249.278C419.669 257.894 416.286 265.292 409.464 271.44C408.35 272.413 407.158 273.313 405.88 274.115C405.204 274.115 404.885 273.662 404.606 273.246C404.088 272.482 403.771 271.611 403.611 270.744C403.371 269.702 403.213 268.66 403.291 267.584V267.097C403.236 266.994 402.64 219.162 402.878 218.917Z" fill="#BABABA"/>
<path d="M402.377 218.984C402.297 218.847 402.217 218.951 402.137 219.018C402.176 219.706 401.896 220.319 401.458 220.905C400.977 221.487 400.339 221.933 399.7 222.413C396.146 225.051 393.349 228.237 391.109 231.801C388.129 236.597 386.593 241.737 386.157 247.149C385.958 249.101 386.877 255.989 387.595 257.976C389.553 263.252 393.07 267.673 397.625 271.51C398.744 272.434 399.94 273.291 401.178 274.115C401.538 274.115 401.577 273.839 401.66 273.635C401.818 273.197 401.938 272.751 402.02 272.298L402.822 267.16L402.377 218.984Z" fill="#B8B8B8"/>
<path d="M404.823 275.737C404.899 274.943 405.315 274.284 405.768 273.628C405.313 273.455 404.975 273.112 404.711 272.729C404.483 272.384 404.295 271.969 404.148 271.588C403.619 270.136 403.506 268.612 403.355 267.128V266.229C403.166 266.368 403.127 267.543 403.127 267.717C403.017 269.286 402.79 270.846 402.447 272.386C402.334 273.009 402.258 273.63 401.84 274.183C401.84 274.253 401.84 274.322 401.877 274.425C402.557 276.258 402.744 278.125 402.859 280.028V280.722C402.859 281.552 402.822 281.377 403.573 281.655C403.877 281.758 404.215 281.794 404.518 282C404.745 282 404.782 281.827 404.782 281.689L404.67 280.548V277.365C404.633 276.81 404.745 276.258 404.821 275.739L404.823 275.737Z" fill="#C2BFBF"/>
</g>
<path d="M324.46 299.666H261.822C257.624 299.666 254.22 303.07 254.22 307.268V369.906C254.22 374.105 257.624 377.508 261.822 377.508H324.46C328.659 377.508 332.062 374.105 332.062 369.906V307.268C332.062 303.07 328.659 299.666 324.46 299.666Z" fill="white" fill-opacity="0.1"/>
<path d="M324.46 299.197H261.822C257.365 299.197 253.751 302.811 253.751 307.268V369.906C253.751 374.364 257.365 377.977 261.822 377.977H324.46C328.918 377.977 332.531 374.364 332.531 369.906V307.268C332.531 302.811 328.918 299.197 324.46 299.197Z" stroke="white" stroke-opacity="0.2" stroke-width="0.937853"/>
<path fill-rule="evenodd" clip-rule="evenodd" d="M302.122 361.654V369.257C303.353 369.896 304.858 370.366 306.531 370.685C308.203 371.004 310.027 371.156 311.852 371.156C313.676 371.156 315.349 370.99 317.021 370.641C318.693 370.291 320.062 369.712 321.278 368.967C322.509 368.161 323.559 367.143 324.167 365.774C324.775 364.406 325.246 362.886 325.246 360.909C325.246 359.526 325.033 358.325 324.623 357.26C324.212 356.196 323.619 355.284 322.798 354.524C322.023 353.718 321.126 353.003 320.062 352.395C318.997 351.787 317.781 351.15 316.413 350.572C315.409 350.161 314.588 349.765 313.676 349.37C312.886 348.975 312.202 348.579 311.7 348.184C311.137 347.773 310.712 347.349 310.408 346.908C310.103 346.452 309.951 345.949 309.951 345.387C309.951 344.87 310.087 344.398 310.362 343.973C310.637 343.547 311.016 343.197 311.502 342.893C311.989 342.589 312.597 342.361 313.327 342.194C314.041 342.027 314.832 341.951 315.759 341.951C316.398 341.951 317.067 341.998 317.736 342.093C318.435 342.189 319.15 342.337 319.864 342.534C320.579 342.732 321.278 342.975 321.993 343.279C322.662 343.583 323.285 343.933 323.817 344.328V337.184C322.662 336.743 321.384 336.407 320.016 336.195C318.648 335.982 317.127 335.875 315.303 335.875C313.479 335.875 311.806 336.073 310.134 336.453C308.461 336.833 307.093 337.441 305.877 338.277C304.645 339.098 303.748 340.102 302.988 341.47C302.274 342.747 301.924 344.207 301.924 346.031C301.924 348.312 302.578 350.289 303.9 351.809C305.208 353.482 307.245 354.697 309.83 355.913C310.879 356.339 311.806 356.765 312.718 357.175C313.631 357.586 314.391 358.012 314.999 358.452C315.653 358.893 316.17 359.38 316.519 359.897C316.899 360.414 317.097 361.022 317.097 361.721C317.097 362.208 316.978 362.664 316.747 363.089C316.516 363.515 316.154 363.88 315.668 364.184C315.181 364.488 314.588 364.731 313.844 364.914C313.129 365.081 312.323 365.172 311.259 365.172C309.587 365.172 307.914 364.883 306.394 364.306C304.721 363.728 303.201 362.861 301.833 361.721L302.122 361.654ZM289.351 342.954H299.081V336.721H271.867V342.954H281.597V370.776H289.351V342.954Z" fill="white"/>
<path d="M348.944 436.594H298.299C290.53 436.594 284.232 442.892 284.232 450.661V501.305C284.232 509.075 290.53 515.373 298.299 515.373H348.944C356.713 515.373 363.011 509.075 363.011 501.305V450.661C363.011 442.892 356.713 436.594 348.944 436.594Z" fill="white" fill-opacity="0.1"/>
<path d="M348.944 436.125H298.299C290.271 436.125 283.763 442.633 283.763 450.661V501.305C283.763 509.334 290.271 515.842 298.299 515.842H348.944C356.972 515.842 363.48 509.334 363.48 501.305V450.661C363.48 442.633 356.972 436.125 348.944 436.125Z" stroke="white" stroke-opacity="0.2" stroke-width="0.937853"/>
<path d="M555.915 229.469L505.28 230.389C497.511 230.53 491.329 236.942 491.47 244.71L492.39 295.346C492.531 303.114 498.943 309.297 506.711 309.156L557.347 308.236C565.115 308.095 571.298 301.683 571.157 293.915L570.236 243.279C570.095 235.511 563.684 229.328 555.915 229.469Z" fill="white" fill-opacity="0.1"/>
<path d="M559 241L559 268.5L545.25 282.25L531.5 296L517.75 282.25L531.5 268.5L559 241Z" fill="#9C9C9C"/>
<path d="M555.906 229L505.271 229.92C497.244 230.066 490.855 236.692 491 244.719L491.921 295.355C492.066 303.382 498.692 309.771 506.719 309.625L557.355 308.705C565.382 308.559 571.771 301.933 571.625 293.906L570.705 243.271C570.559 235.243 563.933 228.854 555.906 229Z" stroke="white" stroke-opacity="0.2" stroke-width="0.937853"/>
<path d="M531.5 268.5L517.75 282.25L504 296L504 241L517.75 254.75L531.5 268.5Z" fill="#BABABA"/>
<path d="M559 268.5L559 296L545.25 282.25L559 268.5Z" fill="#737373"/>
<mask id="mask3_738_2" style="mask-type:luminance" maskUnits="userSpaceOnUse" x="296" y="448" width="55" height="56">
<path d="M350.972 448.784H296.423V503.334H350.972V448.784Z" fill="white"/>
</mask>
<g mask="url(#mask3_738_2)">
<path d="M323.698 449.46C308.63 449.46 296.423 461.677 296.423 476.735C296.423 488.792 304.238 499.011 315.067 502.617C316.436 502.874 316.931 502.03 316.931 501.301C316.931 500.653 316.915 498.94 316.905 496.666C309.314 498.309 307.715 492.999 307.715 492.999C306.472 489.855 304.679 489.012 304.679 489.012C302.211 487.326 304.875 487.362 304.875 487.362C307.609 487.547 309.048 490.166 309.048 490.166C311.481 494.339 315.43 493.132 316.994 492.43C317.232 490.672 317.943 489.463 318.717 488.79C312.662 488.106 306.295 485.763 306.295 475.311C306.295 472.326 307.352 469.896 309.099 467.986C308.798 467.303 307.874 464.524 309.34 460.767C309.34 460.767 311.622 460.039 316.84 463.564C319.024 462.959 321.342 462.658 323.659 462.642C325.977 462.658 328.294 462.961 330.477 463.564C335.665 460.039 337.946 460.767 337.946 460.767C339.41 464.524 338.486 467.301 338.22 467.986C339.95 469.896 341.007 472.328 341.007 475.311C341.007 485.786 334.632 488.096 328.57 488.763C329.518 489.579 330.406 491.258 330.406 493.807C330.406 497.455 330.372 500.394 330.372 501.282C330.372 501.991 330.849 502.843 332.254 502.569C343.164 499.001 350.969 488.773 350.969 476.733C350.969 461.676 338.762 449.458 323.695 449.458L323.698 449.46Z" fill="white"/>
</g>
<path d="M196.073 412.209H145.428C137.659 412.209 131.361 418.508 131.361 426.277V476.921C131.361 484.691 137.659 490.989 145.428 490.989H196.073C203.842 490.989 210.14 484.691 210.14 476.921V426.277C210.14 418.508 203.842 412.209 196.073 412.209Z" fill="white" fill-opacity="0.1"/>
<path d="M196.072 411.74H145.428C137.4 411.74 130.892 418.249 130.892 426.277V476.921C130.892 484.95 137.4 491.458 145.428 491.458H196.072C204.101 491.458 210.609 484.95 210.609 476.921V426.277C210.609 418.249 204.101 411.74 196.072 411.74Z" stroke="white" stroke-opacity="0.2" stroke-width="0.937853"/>
<path d="M195.783 434.714L172.576 476.212C172.097 477.069 170.866 477.074 170.379 476.221L146.712 434.718C146.182 433.789 146.977 432.663 148.03 432.852L171.262 437.004C171.41 437.031 171.562 437.03 171.71 437.003L194.456 432.857C195.505 432.666 196.303 433.783 195.783 434.714Z" fill="url(#paint2_linear_738_2)"/>
<path d="M182.328 427.404L165.154 430.769C165.017 430.796 164.893 430.868 164.801 430.973C164.709 431.078 164.654 431.211 164.646 431.351L163.59 449.193C163.584 449.291 163.601 449.389 163.639 449.479C163.678 449.569 163.737 449.649 163.812 449.712C163.887 449.775 163.975 449.82 164.071 449.843C164.166 449.866 164.265 449.867 164.361 449.845L169.142 448.741C169.59 448.638 169.994 449.032 169.902 449.482L168.481 456.438C168.386 456.907 168.825 457.307 169.282 457.168L172.236 456.271C172.694 456.132 173.134 456.533 173.037 457.002L170.779 467.928C170.638 468.612 171.547 468.985 171.926 468.399L172.179 468.007L186.174 440.079C186.408 439.612 186.004 439.079 185.49 439.178L180.568 440.128C180.106 440.217 179.713 439.786 179.843 439.334L183.055 428.198C183.186 427.744 182.791 427.313 182.328 427.404Z" fill="url(#paint3_linear_738_2)"/>
<path d="M170.752 249.96H120.108C112.338 249.96 106.04 256.259 106.04 264.028V314.672C106.04 322.442 112.338 328.74 120.108 328.74H170.752C178.521 328.74 184.819 322.442 184.819 314.672V264.028C184.819 256.259 178.521 249.96 170.752 249.96Z" fill="white" fill-opacity="0.1"/>
<path d="M170.752 249.491H120.107C112.079 249.491 105.571 256 105.571 264.028V314.672C105.571 322.701 112.079 329.209 120.107 329.209H170.752C178.78 329.209 185.288 322.701 185.288 314.672V264.028C185.288 256 178.78 249.491 170.752 249.491Z" stroke="white" stroke-opacity="0.2" stroke-width="0.937853"/>
<path d="M162.048 269H156.121V304.551H162.048V269Z" fill="url(#paint4_linear_738_2)"/>
<path d="M173.158 320.115L133.478 269H126V304.537H131.982V276.596L168.464 323.733C170.109 322.629 171.679 321.421 173.158 320.115Z" fill="url(#paint5_linear_738_2)"/>
<path d="M389.272 555.7H338.628C330.858 555.7 324.56 561.999 324.56 569.768V620.412C324.56 628.182 330.858 634.48 338.628 634.48H389.272C397.041 634.48 403.339 628.182 403.339 620.412V569.768C403.339 561.999 397.041 555.7 389.272 555.7Z" fill="white" fill-opacity="0.1"/>
<path d="M389.272 555.232H338.627C330.599 555.232 324.091 561.741 324.091 569.769V620.413C324.091 628.442 330.599 634.95 338.627 634.95H389.272C397.3 634.95 403.808 628.442 403.808 620.413V569.769C403.808 561.741 397.3 555.232 389.272 555.232Z" stroke="white" stroke-opacity="0.2" stroke-width="0.937853"/>
<path d="M337.695 564.141C337.128 564.141 336.705 564.603 336.756 565.168L341.538 618.816C341.589 619.381 342.077 619.968 342.624 620.12L362.92 625.755C363.467 625.907 364.361 625.907 364.908 625.755L385.266 620.111C385.813 619.959 386.302 619.373 386.352 618.808L391.143 565.168C391.194 564.603 390.77 564.141 390.203 564.141H337.695ZM380.957 576.445C380.912 576.949 380.834 577.824 380.783 578.389L380.657 579.796C380.607 580.361 380.534 581.169 380.496 581.592C380.458 582.014 380.422 582.36 380.416 582.36C380.409 582.36 379.94 582.36 379.372 582.36H364.981C364.413 582.36 363.944 582.36 363.938 582.36C363.932 582.36 363.463 582.36 362.895 582.36H355.316C354.749 582.36 354.326 582.822 354.376 583.387L354.818 588.329C354.869 588.894 355.374 589.356 355.942 589.356H362.896C363.463 589.356 363.932 589.356 363.938 589.356C363.945 589.356 364.414 589.356 364.981 589.356H376.934C377.501 589.356 378.379 589.356 378.885 589.356C379.39 589.356 379.766 589.769 379.721 590.273C379.675 590.777 379.596 591.652 379.546 592.217L378.124 608.149C378.073 608.714 378.009 609.436 377.981 609.753C377.953 610.07 377.483 610.454 376.936 610.605L364.943 613.931C364.397 614.082 363.942 614.208 363.934 614.209C363.925 614.211 363.471 614.089 362.924 613.937L350.919 610.606C350.372 610.454 349.884 609.867 349.833 609.302L349.06 600.628C349.01 600.063 349.433 599.601 350.001 599.601H351.096C351.664 599.601 352.592 599.601 353.159 599.601H354.793C355.36 599.601 355.866 600.063 355.916 600.628L356.219 604.024C356.27 604.589 356.759 605.172 357.307 605.32L362.923 606.837C363.47 606.985 363.92 607.106 363.923 607.106C363.925 607.106 364.375 606.984 364.923 606.836L370.549 605.316C371.096 605.168 371.586 604.585 371.637 604.02L372.247 597.217C372.297 596.652 371.875 596.19 371.307 596.19H364.981C364.414 596.19 363.945 596.19 363.938 596.19C363.932 596.19 363.463 596.19 362.896 596.19H349.695C349.127 596.19 348.622 595.727 348.572 595.162L347.075 578.389C347.024 577.824 346.946 576.949 346.901 576.445C346.856 575.941 347.284 575.528 347.851 575.528H362.896C363.463 575.528 363.932 575.528 363.938 575.528C363.945 575.528 364.414 575.528 364.981 575.528H380.007C380.575 575.528 381.002 575.941 380.957 576.445Z" fill="white"/>
<path d="M531.09 130.463H480.129C472.311 130.463 465.973 136.679 465.973 144.348V194.334C465.973 202.003 472.311 208.219 480.129 208.219H531.09C538.908 208.219 545.246 202.003 545.246 194.334V144.348C545.246 136.679 538.908 130.463 531.09 130.463Z" fill="white" fill-opacity="0.1"/>
<path d="M531.09 130H480.129C472.05 130 465.501 136.424 465.501 144.348V194.334C465.501 202.258 472.05 208.682 480.129 208.682H531.09C539.168 208.682 545.718 202.258 545.718 194.334V144.348C545.718 136.424 539.168 130 531.09 130Z" stroke="white" stroke-opacity="0.2" stroke-width="0.937853"/>
<path fill-rule="evenodd" clip-rule="evenodd" d="M505.5 149C497.1 149 491.85 153.667 489.75 163C492.9 158.333 496.575 156.583 500.775 157.75C503.171 158.415 504.884 160.348 506.78 162.485C509.868 165.969 513.443 170 521.25 170C529.65 170 534.9 165.333 537 156C533.85 160.667 530.175 162.417 525.975 161.25C523.579 160.585 521.866 158.652 519.97 156.515C516.882 153.031 513.307 149 505.5 149ZM489.75 170C481.35 170 476.1 174.667 474 184C477.15 179.333 480.825 177.583 485.025 178.75C487.421 179.416 489.134 181.348 491.03 183.485C494.118 186.969 497.693 191 505.5 191C513.9 191 519.15 186.333 521.25 177C518.1 181.667 514.425 183.417 510.225 182.25C507.829 181.585 506.116 179.652 504.22 177.515C501.132 174.031 497.557 170 489.75 170Z" fill="white"/>
<path d="M485.181 459.469H434.537C426.767 459.469 420.469 465.767 420.469 473.537V524.181C420.469 531.95 426.767 538.249 434.537 538.249H485.181C492.95 538.249 499.249 531.95 499.249 524.181V473.537C499.249 465.767 492.95 459.469 485.181 459.469Z" fill="#2B2B2B"/>
<path d="M490.502 495.566C490.502 495.566 488.112 493.31 483.201 494.106C482.67 490.257 478.555 488 478.555 488C478.555 488 474.705 492.646 477.493 497.823C476.696 498.221 475.369 498.752 473.378 498.752H436.873C436.21 501.274 436.21 518 454.528 518C467.67 518 477.493 511.894 482.139 500.743C489.042 501.274 490.502 495.566 490.502 495.566Z" fill="#797979"/>
<path d="M466.41 494.593H472.16ZM459.566 494.593H465.315ZM452.859 494.593H458.608ZM446.152 494.593H451.764ZM439.308 494.593H445.057ZM446.152 488.297H451.764ZM452.859 488.297H458.608ZM459.566 488.297H465.315ZM459.566 482H465.315Z" fill="black"/>
<path d="M466.41 494.593H472.16M459.566 494.593H465.315M452.859 494.593H458.608M446.152 494.593H451.764M439.308 494.593H445.057M446.152 488.297H451.764M452.859 488.297H458.608M459.566 488.297H465.315M459.566 482H465.315" stroke="#7A7A7A" stroke-width="5.20152"/>
<path d="M485.181 459H434.537C426.508 459 420 465.508 420 473.537V524.181C420 532.209 426.508 538.717 434.537 538.717H485.181C493.209 538.717 499.717 532.209 499.717 524.181V473.537C499.717 465.508 493.209 459 485.181 459Z" stroke="white" stroke-opacity="0.2" stroke-width="0.937853"/>
<path d="M265.181 518.468H214.537C206.767 518.468 200.469 524.766 200.469 532.536V583.18C200.469 590.949 206.767 597.248 214.537 597.248H265.181C272.95 597.248 279.249 590.949 279.249 583.18V532.536C279.249 524.766 272.95 518.468 265.181 518.468Z" fill="white" fill-opacity="0.1"/>
<path d="M265.181 518H214.537C206.508 518 200 524.508 200 532.537V583.181C200 591.209 206.508 597.718 214.537 597.718H265.181C273.209 597.718 279.717 591.209 279.717 583.181V532.537C279.717 524.508 273.209 518 265.181 518Z" stroke="white" stroke-opacity="0.2" stroke-width="0.937853"/>
<path fill-rule="evenodd" clip-rule="evenodd" d="M234.853 531C230.694 531 227.322 534.264 227.322 538.291V543.339H240.355V544.741H221.53C217.371 544.741 214 548.005 214 552.032V562.969C214 566.995 217.371 570.259 221.53 570.259H225.874V564.09C225.874 560.064 229.246 556.799 233.405 556.799H247.306C250.825 556.799 253.678 554.037 253.678 550.63V538.291C253.678 534.264 250.307 531 246.148 531H234.853ZM233.115 539.974C234.554 539.974 235.721 538.844 235.721 537.45C235.721 536.056 234.554 534.926 233.115 534.926C231.675 534.926 230.508 536.056 230.508 537.45C230.508 538.844 231.675 539.974 233.115 539.974Z" fill="url(#paint6_linear_738_2)"/>
<path fill-rule="evenodd" clip-rule="evenodd" d="M246.147 584C250.306 584 253.678 580.736 253.678 576.709V571.662H240.645V570.26H259.47C263.629 570.26 267 566.995 267 562.968V552.032C267 548.005 263.629 544.741 259.47 544.741H255.126V550.91C255.126 554.937 251.754 558.201 247.596 558.201H233.694C230.175 558.201 227.322 560.963 227.322 564.37V576.709C227.322 580.736 230.694 584 234.852 584H246.147ZM247.885 575.027C246.446 575.027 245.279 576.157 245.279 577.55C245.279 578.944 246.446 580.074 247.885 580.074C249.325 580.074 250.492 578.944 250.492 577.55C250.492 576.157 249.325 575.027 247.885 575.027Z" fill="url(#paint7_linear_738_2)"/>
</g>
</g>
<defs>
<radialGradient id="paint0_radial_738_2" cx="0" cy="0" r="1" gradientUnits="userSpaceOnUse" gradientTransform="translate(332 332.938) rotate(90) scale(349.759)">
<stop stop-color="white"/>
<stop offset="1" stop-color="white" stop-opacity="0"/>
</radialGradient>
<linearGradient id="paint1_linear_738_2" x1="141.949" y1="-81.5932" x2="363.282" y2="699.638" gradientUnits="userSpaceOnUse">
<stop offset="0.416946"/>
<stop offset="0.880782" stop-opacity="0.02"/>
</linearGradient>
<linearGradient id="paint2_linear_738_2" x1="146.134" y1="436.2" x2="171.163" y2="470.191" gradientUnits="userSpaceOnUse">
<stop stop-color="white" stop-opacity="0"/>
<stop offset="1" stop-color="white"/>
</linearGradient>
<linearGradient id="paint3_linear_738_2" x1="173.415" y1="428.318" x2="178.563" y2="463.638" gradientUnits="userSpaceOnUse">
<stop offset="0.0001" stop-color="white"/>
</linearGradient>
<linearGradient id="paint4_linear_738_2" x1="159.08" y1="268.99" x2="158.974" y2="295.098" gradientUnits="userSpaceOnUse">
<stop stop-color="white"/>
<stop offset="1" stop-color="white" stop-opacity="0"/>
</linearGradient>
<linearGradient id="paint5_linear_738_2" x1="145.41" y1="305.371" x2="161.161" y2="324.893" gradientUnits="userSpaceOnUse">
<stop stop-color="white"/>
<stop offset="1" stop-color="white" stop-opacity="0"/>
</linearGradient>
<linearGradient id="paint6_linear_738_2" x1="233.839" y1="531" x2="233.839" y2="570.259" gradientUnits="userSpaceOnUse">
<stop stop-color="#BCBCBC"/>
<stop offset="1" stop-color="#4B4B4B"/>
</linearGradient>
<linearGradient id="paint7_linear_738_2" x1="247.161" y1="544.741" x2="247.161" y2="584" gradientUnits="userSpaceOnUse">
<stop offset="0.0001" stop-color="#BDBDBD"/>
<stop offset="0.966804" stop-color="#272727"/>
</linearGradient>
<clipPath id="clip0_738_2">
<rect width="664" height="665" fill="white"/>
</clipPath>
</defs>
</svg>
