<svg width="60" height="20" viewBox="0 0 54 12" fill="none" xmlns="http://www.w3.org/2000/svg">
<g clip-path="url(#clip0_748_2)">
<path d="M47.7335 0.00354912C46.3579 -0.0438248 44.9824 0.383062 43.8438 1.28431L44.6027 1.7112C45.5041 1.04713 46.6424 0.762471 47.7335 0.809949V0.00354912Z" fill="url(#paint0_linear_748_2)"/>
<path d="M51.7655 1.80616C50.8168 0.810051 49.5834 0.193356 48.2552 0.0510254V0.85753C49.3938 1.04723 50.3899 1.56897 51.1963 2.37537L51.7655 1.80616Z" fill="url(#paint1_linear_748_2)"/>
<path d="M53.473 5.69581C53.4257 4.46242 52.9513 3.22923 52.145 2.18555L51.5757 2.75487C52.2399 3.65612 52.6194 4.65223 52.6667 5.69581H53.473Z" fill="url(#paint2_linear_748_2)"/>
<path d="M52.145 9.77505C52.9514 8.73157 53.4257 7.49818 53.4731 6.26489H52.6667C52.6195 7.30848 52.2399 8.30458 51.5757 9.20583L52.145 9.77505Z" fill="url(#paint3_linear_748_2)"/>
<path d="M48.2554 11.9098C49.536 11.7675 50.8168 11.1508 51.7655 10.1547L51.1962 9.58545C50.3898 10.4392 49.3461 10.9611 48.2552 11.1034L48.2554 11.9098Z" fill="url(#paint4_linear_748_2)"/>
<path d="M43.8438 10.6764C44.9822 11.5778 46.3579 12.0046 47.7335 11.9572V11.1508C46.6424 11.1982 45.5516 10.9136 44.6027 10.2495L43.8438 10.6764Z" fill="url(#paint5_linear_748_2)"/>
<path d="M3.03003 4.24606V9.15938H1.39229V4.24606H0.046936V2.85897H4.37528V4.24606H3.03003ZM6.32377 2.85897V6.28491C6.32377 6.46878 6.3293 6.65817 6.34047 6.85309C6.35716 7.04258 6.3989 7.21518 6.46579 7.37118C6.53821 7.52718 6.64965 7.65531 6.80001 7.75559C6.95048 7.85024 7.1621 7.89761 7.43508 7.89761C7.70805 7.89761 7.91695 7.85024 8.06179 7.75559C8.21226 7.65531 8.3237 7.52718 8.39601 7.37118C8.46843 7.21518 8.51027 7.04248 8.52144 6.85309C8.53814 6.65817 8.54648 6.46878 8.54648 6.28491V2.85907H10.1759V6.51062C10.1759 7.49107 9.95028 8.2069 9.49908 8.6581C9.05341 9.1093 8.36544 9.335 7.43508 9.335C6.50481 9.335 5.81403 9.1093 5.36283 8.6581C4.91163 8.2069 4.68603 7.49107 4.68603 6.51062V2.85907L6.32377 2.85897ZM12.7197 5.6749H13.0288C13.3519 5.6749 13.5998 5.60811 13.7725 5.47434C13.9452 5.34078 14.0316 5.14846 14.0316 4.89782C14.0316 4.64718 13.9452 4.45497 13.7725 4.3213C13.5998 4.18752 13.352 4.12074 13.0288 4.12074H12.7197V5.6749ZM16.321 9.15938H14.2823L12.7197 6.73611V9.15938H11.0819V2.85897H13.6305C13.9814 2.85897 14.2879 2.91187 14.5496 3.01778C14.8115 3.11796 15.026 3.25726 15.193 3.43549C15.3643 3.61145 15.4954 3.8224 15.5774 4.05385C15.6666 4.2878 15.7111 4.53855 15.7111 4.80589C15.7111 5.28495 15.5942 5.6749 15.3602 5.97573C15.1318 6.27104 14.792 6.47149 14.3407 6.5774L16.321 9.15938ZM18.2261 7.88926H18.5854C18.9978 7.88926 19.2928 7.83636 19.4711 7.73055C19.6495 7.62464 19.7385 7.45476 19.7385 7.22081C19.7385 6.98686 19.6495 6.81698 19.4711 6.71107C19.293 6.60526 18.9978 6.55236 18.5854 6.55236H18.2261V7.88926ZM18.2261 5.33232H18.5269C19.0395 5.33232 19.2957 5.12905 19.2957 4.72231C19.2957 4.31566 19.0395 4.11239 18.5269 4.11239H18.2261V5.33232ZM16.5882 2.85907H19.0281C19.6076 2.85907 20.0476 2.99838 20.3484 3.27688C20.6492 3.55549 20.7996 3.9565 20.7996 4.48011C20.7996 4.79765 20.7412 5.06227 20.6241 5.27399C20.5128 5.48008 20.34 5.65559 20.106 5.80043C20.34 5.84498 20.5378 5.91458 20.6994 6.00923C20.8664 6.09845 21.0002 6.20978 21.1005 6.34356C21.2061 6.47672 21.2829 6.63036 21.3261 6.79476C21.3707 6.96182 21.3928 7.14015 21.3928 7.32954C21.3928 7.62484 21.34 7.88655 21.2341 8.11497C21.1372 8.33899 20.9883 8.53667 20.7996 8.69159C20.6158 8.84749 20.3902 8.96446 20.1227 9.04251C19.8554 9.12046 19.5546 9.15938 19.2203 9.15938H16.5882V2.85907ZM23.336 6.00933C23.336 6.25998 23.3832 6.49111 23.4779 6.70283C23.5727 6.91455 23.7007 7.09831 23.8623 7.25431C24.0244 7.41071 24.2143 7.53543 24.4223 7.62203C24.6395 7.70551 24.8678 7.74725 25.1074 7.74725C25.3469 7.74725 25.5725 7.70551 25.7842 7.62203C26.0015 7.53281 26.1909 7.41031 26.3525 7.25431C26.5192 7.0988 26.6528 6.91122 26.7452 6.70283C26.8398 6.49111 26.8873 6.25998 26.8873 6.00923C26.8873 5.75858 26.8398 5.52745 26.7452 5.31573C26.6528 5.10734 26.5192 4.91976 26.3525 4.76425C26.1908 4.60825 26.0015 4.48846 25.7842 4.40488C25.5724 4.31577 25.3469 4.27131 25.1074 4.27131C24.8725 4.27038 24.6397 4.31576 24.4223 4.40488C24.2137 4.48641 24.0234 4.60857 23.8623 4.76425C23.7007 4.92025 23.5727 5.10401 23.478 5.31573C23.3832 5.52745 23.336 5.75869 23.336 6.00933ZM21.623 6.00923C21.623 5.54123 21.7093 5.10672 21.882 4.70561C22.0546 4.29897 22.2942 3.94523 22.6007 3.64439C22.9069 3.34366 23.2718 3.10961 23.6953 2.94255C24.1242 2.76985 24.5948 2.68345 25.1074 2.68345C25.6142 2.68345 26.0822 2.76985 26.5112 2.94255C26.9401 3.10961 27.3078 3.34366 27.6142 3.64439C27.9262 3.94523 28.1685 4.29897 28.3412 4.70561C28.5138 5.10672 28.6003 5.54123 28.6003 6.00912C28.6003 6.47712 28.5138 6.91445 28.3412 7.32109C28.1719 7.71721 27.9247 8.07526 27.6143 8.37396C27.3078 8.67469 26.9402 8.91145 26.5113 9.08415C26.0822 9.25131 25.6142 9.3349 25.1074 9.3349C24.5949 9.3349 24.1242 9.25131 23.6953 9.08415C23.2718 8.91145 22.9069 8.67469 22.6007 8.37396C22.2942 8.07312 22.0546 7.7221 21.882 7.32109C21.7093 6.91445 21.623 6.47723 21.623 6.00923ZM30.8547 5.67479H31.1639C31.4869 5.67479 31.7349 5.60801 31.9076 5.47424C32.0802 5.34067 32.1667 5.14836 32.1667 4.89771C32.1667 4.64707 32.0802 4.45486 31.9076 4.32119C31.7349 4.18742 31.4869 4.12064 31.1639 4.12064H30.8547V5.67479ZM34.4562 9.15928H32.4173L30.8547 6.73601V9.15928H29.217V2.85897H31.7655C32.1165 2.85897 32.4227 2.91187 32.6847 3.01778C32.9464 3.11796 33.161 3.25726 33.3282 3.43549C33.4994 3.61148 33.6305 3.82243 33.7125 4.05385C33.8015 4.2878 33.8461 4.53855 33.8461 4.80589C33.8461 5.28495 33.7293 5.6749 33.4952 5.97573C33.2667 6.27104 32.927 6.47149 32.4757 6.5774L34.4562 9.15928ZM38.3082 4.24596H36.3611V5.29883H38.1995V6.68592H36.3611V7.77218H38.3082V9.15928H34.7234V2.85897H38.3082V4.24596ZM40.7089 5.75003H41.252C41.8536 5.75003 42.1544 5.48822 42.1544 4.9646C42.1544 4.44088 41.8536 4.17907 41.252 4.17907H40.7089V5.75003ZM40.7089 9.15928H39.071V2.85897H41.6782C42.3856 2.85897 42.9259 3.04283 43.2992 3.41045C43.678 3.77817 43.8674 4.29615 43.8674 4.96471C43.8674 5.63316 43.678 6.15114 43.2992 6.51886C42.9259 6.88658 42.3856 7.07034 41.6782 7.07034H40.7088L40.7089 9.15928ZM45.7452 6.00902C45.7452 6.25977 45.7926 6.4909 45.8872 6.70262C45.9786 6.90951 46.1092 7.09678 46.2717 7.2541C46.4338 7.41046 46.6236 7.53517 46.8315 7.62182C47.0487 7.7053 47.2771 7.74704 47.5167 7.74704C47.7563 7.74704 47.9819 7.7053 48.1935 7.62182C48.4108 7.5326 48.6003 7.4101 48.7617 7.2541C48.9285 7.09865 49.0621 6.91106 49.1545 6.70262C49.2491 6.4909 49.2965 6.25977 49.2965 6.00902C49.2965 5.75838 49.2491 5.52725 49.1545 5.31552C49.0621 5.10708 48.9285 4.91949 48.7617 4.76405C48.6003 4.60805 48.4108 4.48825 48.1935 4.40467C47.9819 4.31556 47.7563 4.27111 47.5167 4.27111C47.2818 4.27015 47.0489 4.31554 46.8315 4.40467C46.6229 4.48624 46.4327 4.60839 46.2717 4.76405C46.1092 4.92136 45.9786 5.10863 45.8872 5.31552C45.7926 5.52725 45.7453 5.75838 45.7453 6.00902M44.0324 6.00902C44.0324 5.54112 44.1187 5.10662 44.2915 4.70551C44.4642 4.29886 44.7036 3.94512 45.01 3.64429C45.3165 3.34356 45.6813 3.10951 46.1046 2.94245C46.5335 2.76975 47.0044 2.68335 47.5169 2.68335C48.0238 2.68335 48.4918 2.76975 48.9206 2.94245C49.3495 3.10951 49.7171 3.34356 50.0236 3.64429C50.3356 3.94512 50.5778 4.29886 50.7506 4.70551C50.9233 5.10662 51.0096 5.54112 51.0096 6.00902C51.0096 6.47702 50.9233 6.91434 50.7506 7.32098C50.5813 7.71712 50.334 8.07516 50.0236 8.37385C49.7171 8.67458 49.3495 8.91135 48.9206 9.08405C48.4918 9.25121 48.0238 9.33479 47.5169 9.33479C47.0044 9.33479 46.5336 9.25121 46.1047 9.08405C45.6813 8.91135 45.3165 8.67458 45.0101 8.37385C44.7036 8.07302 44.4642 7.72199 44.2915 7.32098C44.1187 6.91434 44.0324 6.47702 44.0324 6.00902Z" fill="white"/>
</g>
<defs>
<linearGradient id="paint0_linear_748_2" x1="525.303" y1="0" x2="525.303" y2="1196.06" gradientUnits="userSpaceOnUse">
<stop stop-color="#1E90FF"/>
<stop offset="1" stop-color="#FF1E56"/>
</linearGradient>
<linearGradient id="paint1_linear_748_2" x1="88.5741" y1="-5.04859" x2="88.5741" y2="1191.04" gradientUnits="userSpaceOnUse">
<stop stop-color="#1E90FF"/>
<stop offset="1" stop-color="#FF1E56"/>
</linearGradient>
<linearGradient id="paint2_linear_748_2" x1="-240.13" y1="-216.374" x2="-240.13" y2="979.719" gradientUnits="userSpaceOnUse">
<stop stop-color="#1E90FF"/>
<stop offset="1" stop-color="#FF1E56"/>
</linearGradient>
<linearGradient id="paint3_linear_748_2" x1="-240.146" y1="-620.228" x2="-240.146" y2="575.837" gradientUnits="userSpaceOnUse">
<stop stop-color="#1E90FF"/>
<stop offset="1" stop-color="#FF1E56"/>
</linearGradient>
<linearGradient id="paint4_linear_748_2" x1="88.5741" y1="-948.969" x2="88.5741" y2="247.12" gradientUnits="userSpaceOnUse">
<stop stop-color="#1E90FF"/>
<stop offset="1" stop-color="#FF1E56"/>
</linearGradient>
<linearGradient id="paint5_linear_748_2" x1="525.303" y1="-1014.7" x2="525.303" y2="181.371" gradientUnits="userSpaceOnUse">
<stop stop-color="#1E90FF"/>
<stop offset="1" stop-color="#FF1E56"/>
</linearGradient>
<clipPath id="clip0_748_2">
<rect width="53.52" height="12" fill="white"/>
</clipPath>
</defs>
</svg>
