<svg width="51" height="7" viewBox="0 0 51 7" fill="none" xmlns="http://www.w3.org/2000/svg">
<path d="M2.9831 1.56271V6.47603H1.34536V1.56271H0V0.175617H4.32835V1.56271H2.9831ZM6.27683 0.175617V3.60157C6.27683 3.78543 6.28237 3.97482 6.29353 4.16974C6.31023 4.35924 6.35197 4.53183 6.41885 4.68783C6.49127 4.84383 6.60271 4.97196 6.75308 5.07224C6.90355 5.16689 7.11517 5.21426 7.38814 5.21426C7.66111 5.21426 7.87002 5.16689 8.01485 5.07224C8.16532 4.97196 8.27677 4.84383 8.34908 4.68783C8.4215 4.53183 8.46334 4.35913 8.4745 4.16974C8.4912 3.97482 8.49955 3.78543 8.49955 3.60157V0.175722H10.1289V3.82727C10.1289 4.80772 9.90334 5.52355 9.45214 5.97475C9.00647 6.42595 8.3185 6.65165 7.38814 6.65165C6.45788 6.65165 5.7671 6.42595 5.3159 5.97475C4.8647 5.52355 4.6391 4.80772 4.6391 3.82727V0.175722L6.27683 0.175617ZM12.6727 2.99155H12.9819C13.305 2.99155 13.5529 2.92477 13.7256 2.79099C13.8983 2.65743 13.9847 2.46511 13.9847 2.21447C13.9847 1.96383 13.8983 1.77162 13.7256 1.63795C13.5529 1.50417 13.3051 1.43739 12.9819 1.43739H12.6727V2.99155ZM16.2741 6.47603H14.2353L12.6727 4.05277V6.47603H11.035V0.175617H13.5836C13.9345 0.175617 14.241 0.228522 14.5027 0.334435C14.7646 0.434609 14.979 0.573913 15.1461 0.752139C15.3174 0.928096 15.4485 1.13905 15.5305 1.3705C15.6196 1.60445 15.6642 1.8552 15.6642 2.12254C15.6642 2.6016 15.5473 2.99155 15.3133 3.29238C15.0848 3.58769 14.7451 3.78814 14.2938 3.89405L16.2741 6.47603ZM18.1792 5.20591H18.5384C18.9508 5.20591 19.2459 5.15301 19.4241 5.0472C19.6026 4.94129 19.6916 4.77141 19.6916 4.53746C19.6916 4.30351 19.6026 4.13364 19.4241 4.02772C19.246 3.92191 18.9508 3.86901 18.5384 3.86901H18.1792V5.20591ZM18.1792 2.64897H18.48C18.9926 2.64897 19.2487 2.4457 19.2487 2.03896C19.2487 1.63231 18.9926 1.42904 18.48 1.42904H18.1792V2.64897ZM16.5412 0.175722H18.9812C19.5606 0.175722 20.0007 0.315026 20.3015 0.59353C20.6022 0.872139 20.7527 1.27315 20.7527 1.79677C20.7527 2.1143 20.6943 2.37892 20.5772 2.59064C20.4658 2.79673 20.293 2.97224 20.0591 3.11708C20.293 3.16163 20.4909 3.23123 20.6524 3.32588C20.8195 3.4151 20.9533 3.52643 21.0535 3.66021C21.1592 3.79337 21.236 3.94701 21.2791 4.11141C21.3238 4.27847 21.3459 4.4568 21.3459 4.64619C21.3459 4.9415 21.2931 5.2032 21.1872 5.43162C21.0903 5.65564 20.9413 5.85332 20.7527 6.00824C20.5688 6.16414 20.3432 6.28111 20.0758 6.35916C19.8085 6.43711 19.5076 6.47603 19.1734 6.47603H16.5412V0.175722ZM23.2891 3.32598C23.2891 3.57663 23.3362 3.80776 23.431 4.01948C23.5257 4.2312 23.6538 4.41496 23.8154 4.57096C23.9775 4.72736 24.1674 4.85208 24.3753 4.93868C24.5926 5.02216 24.8209 5.0639 25.0605 5.0639C25.3 5.0639 25.5256 5.02216 25.7373 4.93868C25.9545 4.84946 26.1439 4.72696 26.3056 4.57096C26.4723 4.41545 26.6058 4.22788 26.6982 4.01948C26.7929 3.80776 26.8403 3.57663 26.8403 3.32588C26.8403 3.07523 26.7929 2.8441 26.6982 2.63238C26.6058 2.42399 26.4723 2.23641 26.3056 2.0809C26.1438 1.9249 25.9545 1.80511 25.7373 1.72153C25.5255 1.63242 25.3 1.58797 25.0605 1.58797C24.8255 1.58703 24.5927 1.63241 24.3753 1.72153C24.1667 1.80306 23.9764 1.92522 23.8154 2.0809C23.6538 2.2369 23.5257 2.42066 23.4311 2.63238C23.3362 2.8441 23.2891 3.07534 23.2891 3.32598ZM21.5761 3.32588C21.5761 2.85788 21.6624 2.42337 21.8351 2.02226C22.0077 1.61562 22.2473 1.26188 22.5537 0.961043C22.86 0.660313 23.2249 0.426261 23.6483 0.2592C24.0772 0.0865045 24.5478 0.000104291 25.0605 0.000104291C25.5673 0.000104291 26.0353 0.0865045 26.4643 0.2592C26.8931 0.426261 27.2609 0.660313 27.5672 0.961043C27.8792 1.26188 28.1215 1.61562 28.2942 2.02226C28.4668 2.42337 28.5533 2.85788 28.5533 3.32577C28.5533 3.79377 28.4668 4.2311 28.2942 4.63774C28.1249 5.03386 27.8777 5.39191 27.5673 5.69061C27.2609 5.99134 26.8933 6.2281 26.4644 6.4008C26.0353 6.56797 25.5673 6.65155 25.0605 6.65155C24.5479 6.65155 24.0772 6.56797 23.6483 6.4008C23.2249 6.2281 22.86 5.99134 22.5537 5.69061C22.2473 5.38977 22.0077 5.03875 21.8351 4.63774C21.6624 4.2311 21.5761 3.79388 21.5761 3.32588ZM30.8078 2.99144H31.1169C31.44 2.99144 31.6879 2.92466 31.8606 2.79089C32.0332 2.65732 32.1197 2.46501 32.1197 2.21437C32.1197 1.96372 32.0332 1.77151 31.8606 1.63784C31.6879 1.50407 31.44 1.43729 31.1169 1.43729H30.8078V2.99144ZM34.4092 6.47593H32.3704L30.8078 4.05266V6.47593H29.17V0.175617H31.7186C32.0695 0.175617 32.3758 0.228522 32.6378 0.334435C32.8995 0.434609 33.1141 0.573913 33.2812 0.752139C33.4524 0.928132 33.5835 1.13908 33.6655 1.3705C33.7545 1.60445 33.7992 1.8552 33.7992 2.12254C33.7992 2.6016 33.6823 2.99155 33.4483 3.29238C33.2198 3.58769 32.8801 3.78814 32.4288 3.89405L34.4092 6.47593ZM38.2612 1.56261H36.3142V2.61548H38.1526V4.00257H36.3142V5.08883H38.2612V6.47593H34.6765V0.175617H38.2612V1.56261ZM40.6619 3.06668H41.2051C41.8066 3.06668 42.1075 2.80487 42.1075 2.28125C42.1075 1.75753 41.8066 1.49572 41.2051 1.49572H40.6619V3.06668ZM40.6619 6.47593H39.0241V0.175617H41.6312C42.3387 0.175617 42.8789 0.359478 43.2523 0.727095C43.6311 1.09482 43.8205 1.6128 43.8205 2.28136C43.8205 2.94981 43.6311 3.46779 43.2523 3.83551C42.8789 4.20323 42.3387 4.38699 41.6312 4.38699H40.6618L40.6619 6.47593ZM45.6983 3.32567C45.6983 3.57642 45.7457 3.80755 45.8403 4.01927C45.9317 4.22616 46.0622 4.41343 46.2247 4.57075C46.3868 4.72711 46.5767 4.85182 46.7846 4.93847C47.0018 5.02195 47.2301 5.06369 47.4698 5.06369C47.7094 5.06369 47.935 5.02195 48.1466 4.93847C48.3639 4.84925 48.5534 4.72675 48.7148 4.57075C48.8816 4.4153 49.0152 4.22771 49.1075 4.01927C49.2022 3.80755 49.2496 3.57642 49.2496 3.32567C49.2496 3.07503 49.2022 2.8439 49.1075 2.63217C49.0152 2.42374 48.8816 2.23614 48.7148 2.0807C48.5534 1.9247 48.3639 1.8049 48.1466 1.72132C47.935 1.63221 47.7094 1.58776 47.4698 1.58776C47.2348 1.5868 47.002 1.63219 46.7846 1.72132C46.576 1.80289 46.3857 1.92504 46.2247 2.0807C46.0622 2.23801 45.9317 2.42528 45.8403 2.63217C45.7457 2.8439 45.6984 3.07503 45.6984 3.32567M43.9854 3.32567C43.9854 2.85777 44.0717 2.42327 44.2445 2.02216C44.4172 1.61551 44.6567 1.26177 44.9631 0.960939C45.2695 0.660209 45.6343 0.426156 46.0577 0.259096C46.4865 0.0864 46.9575 0 47.4699 0C47.9768 0 48.4448 0.0864 48.8737 0.259096C49.3026 0.426156 49.6702 0.660209 49.9767 0.960939C50.2887 1.26177 50.5309 1.61551 50.7037 2.02216C50.8763 2.42327 50.9626 2.85777 50.9626 3.32567C50.9626 3.79367 50.8763 4.23099 50.7037 4.63764C50.5343 5.03377 50.2871 5.39182 49.9767 5.6905C49.6702 5.99123 49.3026 6.228 48.8737 6.4007C48.4448 6.56786 47.9768 6.65144 47.4699 6.65144C46.9575 6.65144 46.4866 6.56786 46.0578 6.4007C45.6343 6.228 45.2695 5.99123 44.9632 5.6905C44.6567 5.38967 44.4172 5.03864 44.2445 4.63764C44.0717 4.23099 43.9854 3.79367 43.9854 3.32567Z" fill="white"/>
</svg>
