<svg width="88" height="88" viewBox="0 0 88 88" fill="none" xmlns="http://www.w3.org/2000/svg">
<path d="M87.36 47.2796L52.8 45.5996L85.44 57.1196L82.8 63.8396L51.36 48.9596L77.28 71.9996L72 77.2796L48.96 51.3596L63.84 82.7996L57.12 85.4396L45.6 52.7996L47.28 87.3596H40.08L42 52.7996L30.24 85.4396L23.76 82.7996L38.64 51.3596L15.36 77.2796L10.32 71.9996L36 48.9596L4.8 63.8396L1.92 57.1196L34.8 45.5996L0 47.2796L0 40.0796L34.56 41.9996L1.92 30.2399L4.8 23.7599L36 38.6396L10.32 15.3599L15.36 10.3199L38.64 35.9996L23.76 4.79992L30.24 1.91991L42 34.7999L40.08 -8.39233e-05H47.28L45.6 34.7999L57.12 1.91991L63.84 4.79992L48.96 35.9996L72 10.3199L77.28 15.3599L51.36 38.6396L82.8 23.7599L85.44 30.2399L52.8 41.9996L87.36 40.0796V47.2796Z" fill="url(#paint0_linear_741_4)"/>
<defs>
<linearGradient id="paint0_linear_741_4" x1="0" y1="43.6798" x2="87.36" y2="43.6798" gradientUnits="userSpaceOnUse">
<stop offset="0.345" stop-color="#490DF4"/>
<stop offset="0.65" stop-color="#02B3FF"/>
</linearGradient>
</defs>
</svg>
